<?xml version="1.0" encoding="UTF-8" standalone="no"?>
<!-- Created with Inkscape (http://www.inkscape.org/) -->

<svg
   width="41mm"
   height="47.999996mm"
   viewBox="0 0 41 47.999996"
   version="1.1"
   id="svg1"
   xml:space="preserve"
   xmlns="http://www.w3.org/2000/svg"
   xmlns:svg="http://www.w3.org/2000/svg"><defs
     id="defs1" /><g
     id="layer1"
     transform="translate(-157.03524,-14.089758)"><rect
       style="opacity:1;mix-blend-mode:color-dodge;fill:#42a5f5;fill-opacity:1;fill-rule:evenodd;stroke:#008080;stroke-width:0;stroke-linecap:round;stroke-linejoin:round;paint-order:fill markers stroke"
       id="rect7"
       width="27.920458"
       height="28.697674"
       x="165.5452"
       y="-32.977676"
       transform="matrix(0.93979578,0.34173657,-0.34031633,0.94031101,0,0)" /><rect
       style="opacity:1;mix-blend-mode:color-dodge;fill:#ed6c02;fill-opacity:1;fill-rule:evenodd;stroke:#008080;stroke-width:0;stroke-linecap:round;stroke-linejoin:round;paint-order:fill markers stroke"
       id="rect8"
       width="26.260313"
       height="32.480045"
       x="126.70837"
       y="100.59747"
       transform="matrix(0.87506822,-0.4839996,0.48225421,0.87603132,0,0)" /><path
       style="fill:#333333;fill-opacity:1;stroke:#008080;stroke-width:0;stroke-linecap:round;stroke-linejoin:round;paint-order:fill markers stroke"
       d="m 169.54621,45.142558 c -3.00751,-5.45331 -5.5609,-10.1012 -5.67417,-10.32863 -0.19184,-0.38519 -0.099,-0.70992 1.35571,-4.73898 0.85891,-2.37901 1.57767,-4.34782 1.59725,-4.37515 0.0196,-0.0274 5.62963,1.98516 12.46677,4.47221 6.83713,2.48704 12.71082,4.61895 13.05262,4.73757 l 0.62147,0.21567 -2.29398,6.34972 -2.29397,6.34972 -6.52984,3.6148 c -3.5914,1.98815 -6.59818,3.61557 -6.68172,3.6165 -0.0835,10e-4 -2.6126,-4.46011 -5.62014,-9.91343 z"
       id="path25" /></g></svg>
